<svg version="1" xmlns="http://www.w3.org/2000/svg" width="266.667" height="266.667" viewBox="0 0 200.000000 200.000000"><path d="M41.9 42C24 51 13.5 56.8 12.1 58.6c-3.9 4.9-2.9 8.8 6.4 27.3 5.7 11.4 9.4 17.4 11.2 18.6 3.6 2.4 9 2.2 14.2-.4 2.4-1.3 4.7-1.9 5.2-1.4.4.4.9 13.9 1.1 30 .3 27.6.4 29.3 2.4 31.9 1.1 1.5 3.3 3.7 4.8 4.8 2.7 2 3.9 2.1 42.6 2.1s39.9-.1 42.6-2.1c1.5-1.1 3.7-3.3 4.8-4.8 2-2.6 2.1-4.3 2.4-31.9.2-16.1.6-29.5 1.1-30 .4-.4 3 .2 5.7 1.4 5.9 2.5 10.6 2.7 13.9.5 1.6-1.1 5.6-7.8 11-18.6 9.3-18.6 10.2-22.5 6.4-27.4-1.4-1.8-11.9-7.6-30-16.7-15.3-7.6-28.3-13.9-28.8-13.9-.6 0-3.2 2.2-5.9 4.9-6 6-12.1 8.1-23.2 8.1s-17.2-2.1-23.2-8.1c-2.7-2.7-5.4-4.9-6.1-4.8-.7 0-13.6 6.3-28.8 13.9zm29.6 5.6c13.4 10.2 42.6 10.4 56.3.4l3.7-2.7 21.8 10.9 21.8 10.9-6.2 11.8-6.3 11.9-9.5-4.5c-11.2-5.3-13.6-6-15.6-4.3-1.3 1.1-1.5 6.5-1.5 37.4 0 26.8-.3 36.5-1.2 37.4-1.7 1.7-67.9 1.7-69.6 0-.9-.9-1.2-10.6-1.2-37.5V83l-2.5-1.2c-2.1-1-3.9-.5-13.2 3.9l-10.8 5.1-6.2-12.2-6.1-12.1 21.1-10.7C58 49.9 67.6 45.1 67.8 45.1c.2-.1 1.9 1.1 3.7 2.5z"/><path d="M87 67.2c-1.6 3.9-5 18.5-5 21.7 0 3.8 2.2 5.1 8.5 5.1 3.8 0 4.6.3 4.1 1.5-.3.9-1.1 4.5-1.7 8-1.4 7.4-.4 9.8 4 9.3 2.1-.2 4.4-3 11.8-13.8 11.7-17.2 12.1-21 2.1-21-5.2 0-5.3-.2-3.7-4.9.6-1.7.8-4.3.5-5.6-.6-2.4-.9-2.5-10.1-2.5-8.9 0-9.6.1-10.5 2.2zm15 3c0 .2-.9 3.1-1.9 6.5L98.2 83h6.9c3.8 0 6.9.2 6.9.5 0 .6-11.7 18.3-13 19.8-.4.5 0-2.5 1-6.5s1.6-7.6 1.3-8.1c-.2-.4-3.5-.7-7.2-.7h-6.8l2-9 2-9h5.4c2.9 0 5.3.1 5.3.2z"/></svg>